# xmcd
#
# Track frame offsets: 
#        150
#        29787
#        41738
#        57824
#        97002
#        117686
#        137085
#        151342
#        160366
#        192597
#
# Disc length: 2724 seconds
#
# Revision: 0
# Processed by: cddbd v1.5.2PL0 Copyright (c) Steve Scherf et al.
# Submitted via: ExactAudioCopyFreeDBPlugin 1.0
#
DISCID=950aa20a
DTITLE=Bartek Miarka Band - Where's The Moose
DYEAR=2017
DGENRE=Blues
TTITLE0=It's Your Thing_Hey Pocky A-Way
TTITLE1=Woke Up This Morning
TTITLE2=Just Like A Bird Without A Feather
TTITLE3=Dream
TTITLE4=A Little Shuffle
TTITLE5=Get Out Of My Life Woman
TTITLE6=Sing A Simple Song
TTITLE7=Mess Around
TTITLE8=I've Had My Fun
TTITLE9=Don't Say It's Over
EXTD=
EXTT0=
EXTT1=
EXTT2=
EXTT3=
EXTT4=
EXTT5=
EXTT6=
EXTT7=
EXTT8=
EXTT9=
PLAYORDER=
